<mxfile host="app.diagrams.net" modified="2024-04-21T19:42:06.837Z" agent="Mozilla/5.0 (Windows NT 10.0; Win64; x64) AppleWebKit/537.36 (KHTML, like Gecko) Chrome/123.0.0.0 Safari/537.36" etag="OfoUSO5Q5RXfloNlsnMV" version="24.2.2" type="device">
  <diagram name="Página-1" id="hNnjWUBZpDw-WLdCZP_z">
    <mxGraphModel dx="2261" dy="780" grid="1" gridSize="10" guides="1" tooltips="1" connect="1" arrows="1" fold="1" page="1" pageScale="1" pageWidth="827" pageHeight="1169" math="0" shadow="0">
      <root>
        <mxCell id="0" />
        <mxCell id="1" parent="0" />
        <mxCell id="TuquYAMLNae4G42mEO1Y-1" value="Sistema&lt;div&gt;de&lt;/div&gt;&lt;div&gt;Geoposicionamiento&lt;/div&gt;" style="shape=process;whiteSpace=wrap;html=1;backgroundOutline=1;fillColor=#E6E6E6;" parent="1" vertex="1">
          <mxGeometry x="310" y="60" width="150" height="60" as="geometry" />
        </mxCell>
        <mxCell id="TuquYAMLNae4G42mEO1Y-2" value="Informes de actividad y desempeño" style="rounded=1;whiteSpace=wrap;html=1;fillColor=#E6E6E6;" parent="1" vertex="1">
          <mxGeometry x="245" y="200" width="120" height="60" as="geometry" />
        </mxCell>
        <mxCell id="TuquYAMLNae4G42mEO1Y-3" value="Seguimiento en tiempo real de los vehiculos" style="rounded=1;whiteSpace=wrap;html=1;fillColor=#E6E6E6;" parent="1" vertex="1">
          <mxGeometry x="405" y="200" width="120" height="60" as="geometry" />
        </mxCell>
        <mxCell id="TuquYAMLNae4G42mEO1Y-4" value="Listado de vehiculos parados" style="rounded=1;whiteSpace=wrap;html=1;fillColor=#E6E6E6;" parent="1" vertex="1">
          <mxGeometry x="85" y="200" width="120" height="60" as="geometry" />
        </mxCell>
        <mxCell id="TuquYAMLNae4G42mEO1Y-5" value="Comunicación con el centro de control" style="rounded=1;whiteSpace=wrap;html=1;fillColor=#E6E6E6;" parent="1" vertex="1">
          <mxGeometry x="565" y="200" width="120" height="60" as="geometry" />
        </mxCell>
        <mxCell id="TuquYAMLNae4G42mEO1Y-6" value="Historico de rutas" style="rounded=1;whiteSpace=wrap;html=1;fillColor=#E6E6E6;" parent="1" vertex="1">
          <mxGeometry x="-75" y="200" width="120" height="60" as="geometry" />
        </mxCell>
        <mxCell id="TuquYAMLNae4G42mEO1Y-7" value="Registro del mantenimiento de los vehiculos" style="rounded=1;whiteSpace=wrap;html=1;fillColor=#E6E6E6;" parent="1" vertex="1">
          <mxGeometry x="725" y="200" width="120" height="60" as="geometry" />
        </mxCell>
        <mxCell id="TuquYAMLNae4G42mEO1Y-8" value="Asignacion de Ambulancias" style="rounded=1;whiteSpace=wrap;html=1;fillColor=#E6E6E6;" parent="1" vertex="1">
          <mxGeometry x="-235" y="200" width="120" height="60" as="geometry" />
        </mxCell>
        <mxCell id="TuquYAMLNae4G42mEO1Y-9" value="Listado de Vehículos en funcionamiento" style="rounded=1;whiteSpace=wrap;html=1;fillColor=#E6E6E6;" parent="1" vertex="1">
          <mxGeometry x="-395" y="200" width="120" height="60" as="geometry" />
        </mxCell>
        <mxCell id="TuquYAMLNae4G42mEO1Y-10" value="Notificaciones de emergencias" style="rounded=1;whiteSpace=wrap;html=1;fillColor=#E6E6E6;" parent="1" vertex="1">
          <mxGeometry x="885" y="200" width="120" height="60" as="geometry" />
        </mxCell>
        <mxCell id="TuquYAMLNae4G42mEO1Y-11" value="Notificacion con los familiares" style="rounded=1;whiteSpace=wrap;html=1;fillColor=#E6E6E6;" parent="1" vertex="1">
          <mxGeometry x="1045" y="200" width="120" height="60" as="geometry" />
        </mxCell>
        <mxCell id="TuquYAMLNae4G42mEO1Y-14" value="" style="endArrow=none;html=1;rounded=0;fillColor=#E6E6E6;" parent="1" edge="1">
          <mxGeometry width="50" height="50" relative="1" as="geometry">
            <mxPoint x="390" y="160" as="sourcePoint" />
            <mxPoint x="390" y="120" as="targetPoint" />
          </mxGeometry>
        </mxCell>
        <mxCell id="TuquYAMLNae4G42mEO1Y-15" value="" style="endArrow=none;html=1;rounded=0;exitX=0.461;exitY=0.008;exitDx=0;exitDy=0;exitPerimeter=0;fillColor=#E6E6E6;" parent="1" source="TuquYAMLNae4G42mEO1Y-9" edge="1">
          <mxGeometry width="50" height="50" relative="1" as="geometry">
            <mxPoint x="300" y="280" as="sourcePoint" />
            <mxPoint x="-340" y="160" as="targetPoint" />
          </mxGeometry>
        </mxCell>
        <mxCell id="TuquYAMLNae4G42mEO1Y-16" value="" style="endArrow=none;html=1;rounded=0;fillColor=#E6E6E6;" parent="1" edge="1">
          <mxGeometry width="50" height="50" relative="1" as="geometry">
            <mxPoint x="-340" y="160" as="sourcePoint" />
            <mxPoint x="390" y="160" as="targetPoint" />
          </mxGeometry>
        </mxCell>
        <mxCell id="TuquYAMLNae4G42mEO1Y-17" value="" style="endArrow=none;html=1;rounded=0;exitX=0.538;exitY=0.005;exitDx=0;exitDy=0;exitPerimeter=0;fillColor=#E6E6E6;" parent="1" source="TuquYAMLNae4G42mEO1Y-11" edge="1">
          <mxGeometry width="50" height="50" relative="1" as="geometry">
            <mxPoint x="770" y="240" as="sourcePoint" />
            <mxPoint x="1110" y="160" as="targetPoint" />
          </mxGeometry>
        </mxCell>
        <mxCell id="TuquYAMLNae4G42mEO1Y-18" value="" style="endArrow=none;html=1;rounded=0;fillColor=#E6E6E6;" parent="1" edge="1">
          <mxGeometry width="50" height="50" relative="1" as="geometry">
            <mxPoint x="390" y="160" as="sourcePoint" />
            <mxPoint x="1110" y="160" as="targetPoint" />
          </mxGeometry>
        </mxCell>
        <mxCell id="TuquYAMLNae4G42mEO1Y-19" value="" style="endArrow=none;html=1;rounded=0;exitX=0.5;exitY=0;exitDx=0;exitDy=0;fillColor=#E6E6E6;" parent="1" source="TuquYAMLNae4G42mEO1Y-8" edge="1">
          <mxGeometry width="50" height="50" relative="1" as="geometry">
            <mxPoint x="370" y="250" as="sourcePoint" />
            <mxPoint x="-175" y="160" as="targetPoint" />
          </mxGeometry>
        </mxCell>
        <mxCell id="TuquYAMLNae4G42mEO1Y-20" value="" style="endArrow=none;html=1;rounded=0;exitX=0.5;exitY=0;exitDx=0;exitDy=0;fillColor=#E6E6E6;" parent="1" source="TuquYAMLNae4G42mEO1Y-6" edge="1">
          <mxGeometry width="50" height="50" relative="1" as="geometry">
            <mxPoint x="370" y="250" as="sourcePoint" />
            <mxPoint x="-15" y="160" as="targetPoint" />
          </mxGeometry>
        </mxCell>
        <mxCell id="TuquYAMLNae4G42mEO1Y-21" value="" style="endArrow=none;html=1;rounded=0;exitX=0.5;exitY=0;exitDx=0;exitDy=0;fillColor=#E6E6E6;" parent="1" source="TuquYAMLNae4G42mEO1Y-4" edge="1">
          <mxGeometry width="50" height="50" relative="1" as="geometry">
            <mxPoint x="370" y="250" as="sourcePoint" />
            <mxPoint x="145" y="160" as="targetPoint" />
          </mxGeometry>
        </mxCell>
        <mxCell id="TuquYAMLNae4G42mEO1Y-22" value="" style="endArrow=none;html=1;rounded=0;exitX=0.5;exitY=0;exitDx=0;exitDy=0;fillColor=#E6E6E6;" parent="1" source="TuquYAMLNae4G42mEO1Y-2" edge="1">
          <mxGeometry width="50" height="50" relative="1" as="geometry">
            <mxPoint x="370" y="250" as="sourcePoint" />
            <mxPoint x="305" y="160" as="targetPoint" />
          </mxGeometry>
        </mxCell>
        <mxCell id="TuquYAMLNae4G42mEO1Y-23" value="" style="endArrow=none;html=1;rounded=0;exitX=0.5;exitY=0;exitDx=0;exitDy=0;fillColor=#E6E6E6;" parent="1" source="TuquYAMLNae4G42mEO1Y-3" edge="1">
          <mxGeometry width="50" height="50" relative="1" as="geometry">
            <mxPoint x="370" y="250" as="sourcePoint" />
            <mxPoint x="465" y="160" as="targetPoint" />
          </mxGeometry>
        </mxCell>
        <mxCell id="TuquYAMLNae4G42mEO1Y-24" value="" style="endArrow=none;html=1;rounded=0;exitX=0.5;exitY=0;exitDx=0;exitDy=0;fillColor=#E6E6E6;" parent="1" source="TuquYAMLNae4G42mEO1Y-5" edge="1">
          <mxGeometry width="50" height="50" relative="1" as="geometry">
            <mxPoint x="370" y="250" as="sourcePoint" />
            <mxPoint x="625" y="160" as="targetPoint" />
          </mxGeometry>
        </mxCell>
        <mxCell id="TuquYAMLNae4G42mEO1Y-25" value="" style="endArrow=none;html=1;rounded=0;exitX=0.5;exitY=0;exitDx=0;exitDy=0;fillColor=#E6E6E6;" parent="1" source="TuquYAMLNae4G42mEO1Y-7" edge="1">
          <mxGeometry width="50" height="50" relative="1" as="geometry">
            <mxPoint x="370" y="250" as="sourcePoint" />
            <mxPoint x="785" y="160" as="targetPoint" />
          </mxGeometry>
        </mxCell>
        <mxCell id="TuquYAMLNae4G42mEO1Y-26" value="" style="endArrow=none;html=1;rounded=0;exitX=0.5;exitY=0;exitDx=0;exitDy=0;fillColor=#E6E6E6;" parent="1" source="TuquYAMLNae4G42mEO1Y-10" edge="1">
          <mxGeometry width="50" height="50" relative="1" as="geometry">
            <mxPoint x="620" y="180" as="sourcePoint" />
            <mxPoint x="945" y="160" as="targetPoint" />
          </mxGeometry>
        </mxCell>
      </root>
    </mxGraphModel>
  </diagram>
</mxfile>
